<?xml version="1.0" encoding="UTF-8" standalone="no"?>
<svg width="186px" height="58px" viewBox="0 0 186 58" version="1.1" xmlns="http://www.w3.org/2000/svg" xmlns:xlink="http://www.w3.org/1999/xlink">
    <!-- Generator: Sketch 41.1 (35376) - http://www.bohemiancoding.com/sketch -->
    <title>AIA_New_York_logo_CMYK</title>
    <desc>Created with Sketch.</desc>
    <defs></defs>
    <g id="Page-1" stroke="none" stroke-width="1" fill="none" fill-rule="evenodd">
        <g id="AIA_New_York_logo_CMYK" transform="translate(0.000000, -4.000000)">
            <polygon id="Fill-1" fill="#DF4C54" points="0.0236686391 61.5384615 56.8031558 61.5384615 56.8031558 4.73372781 0.0236686391 4.73372781"></polygon>
            <path d="M27.243787,34.5317554 C27.4465483,34.1767258 27.981854,33.7199211 28.4078895,33.5372781 C28.833925,33.7199211 29.3692308,34.1767258 29.5719921,34.5317554 C29.7648915,34.1767258 30.1605523,33.7506903 30.5664694,33.5069034 C30.9723866,33.6019724 31.5641026,33.9435897 31.8650888,34.1428008 C31.1076923,32.7538462 30.1203156,30.5790927 30.1203156,29.8556213 C30.1203156,29.661144 30.242998,29.5364892 30.4788955,29.469428 C30.5861933,29.4386588 30.8272189,29.4035503 30.8272189,29.4035503 C30.8272189,29.4035503 30.2169625,28.0414201 29.9881657,27.6642998 C29.3613412,26.6343195 28.9301775,26.3053254 28.2216963,26.3053254 C27.9921105,26.3053254 27.8654832,26.3285996 27.8575937,26.4544379 C27.8433925,26.678501 28.8232742,27.3629191 28.7913215,27.6422091 C28.7704142,27.8280079 27.183432,27.5550296 27.3013807,26.564497 C27.3274162,26.3447732 27.2812623,26.3333333 27.2260355,26.2836292 C26.8844181,25.9996055 26.0729783,25.4765286 25.3704142,25.4607495 C24.5948718,25.442998 23.9952663,26.3581854 23.7404339,27.104142 C23.7404339,27.104142 24.1447732,26.9088757 24.3672584,26.9088757 C24.7593688,26.9088757 25.0303748,27.0690335 25.4808679,27.6051282 C26.0986193,28.3408284 26.4954635,29.0623274 26.4954635,30.1621302 C26.4954635,31.6504931 25.7147929,32.8595661 24.9203156,34.2071006 C25.2145957,33.9940828 25.843787,33.5881657 26.2493097,33.5069034 C26.6552268,33.7506903 27.0508876,34.1767258 27.243787,34.5317554" id="Fill-3" fill="#FFFFFF"></path>
            <path d="M19.5443787,14.2717949 L37.2662722,14.2717949 C38.7901381,14.2717949 39.4228797,13.1739645 39.4228797,12.0773176 L17.3881657,12.0773176 C17.3881657,13.1739645 18.0209073,14.2717949 19.5443787,14.2717949" id="Fill-4" fill="#FFFFFF"></path>
            <path d="M24.235503,27.8674556 C24.1238659,27.8674556 24.0145957,27.9084813 23.9810651,27.9234714 L23.9810651,28.9522682 C24.5147929,30.2331361 24.7506903,31.3341223 24.7506903,32.4923077 C25.1226824,31.7309665 25.4481262,30.8942801 25.4481262,30.1546351 C25.4481262,29.2260355 25.130572,28.6836292 24.852071,28.2911243 C24.5952663,27.9293886 24.4583826,27.8674556 24.235503,27.8674556" id="Fill-5" fill="#FFFFFF"></path>
            <path d="M28.4063116,54.6291913 C28.4063116,54.6291913 30.9830375,53.7230769 30.9830375,53.1779093 C30.9830375,52.9218935 30.8059172,52.5668639 30.5747535,52.0453649 C30.3502959,51.5404339 30.0966469,50.9790927 30.0966469,50.9790927 L28.4063116,50.6362919 L26.7159763,50.9790927 C26.7159763,50.9790927 26.4579882,51.5447732 26.2382643,52.0453649 C26.0086785,52.5680473 25.8291913,52.9218935 25.8291913,53.1779093 C25.8291913,53.7230769 28.4063116,54.6291913 28.4063116,54.6291913" id="Fill-6" fill="#FFFFFF"></path>
            <path d="M30.6879684,34.6386588 C30.312426,34.8714004 29.8564103,35.3692308 29.6733728,35.7037475 C29.3893491,35.3076923 28.833925,34.8307692 28.4078895,34.6686391 C27.9822485,34.8307692 27.4260355,35.3076923 27.1420118,35.7037475 C26.9593688,35.3692308 26.5033531,34.8714004 26.1274162,34.6386588 C24.4236686,35.2268245 23.9282051,36.8706114 23.9282051,38.5317554 C23.9282051,41.5873767 25.3289941,45.0331361 26.2532544,47.2934911 L27.0374753,47.1700197 C27.9443787,47.0272189 28.8690335,47.0287968 29.7755424,47.1739645 L30.4646943,47.2844181 C31.3704142,45.3084813 32.8883629,41.6682446 32.8883629,38.5317554 C32.8883629,36.8706114 32.3925049,35.2268245 30.6879684,34.6386588" id="Fill-7" fill="#FFFFFF"></path>
            <path d="M30.0067061,48.6544379 C30.0067061,48.1783037 29.7723866,47.7704142 29.2741617,47.7704142 C28.9301775,47.7704142 28.7932939,47.9913215 28.7932939,48.261144 C28.7932939,48.470217 28.8859961,48.6477318 28.8859961,49.0023669 C28.8859961,49.478501 28.7948718,49.9211045 28.7948718,49.9211045 C28.7948718,49.9211045 30.0067061,49.3767258 30.0067061,48.6544379" id="Fill-8" fill="#FFFFFF"></path>
            <path d="M31.7057199,48.957002 C31.7057199,48.504931 31.495858,48.1065089 31.0268245,48.1065089 C30.7289941,48.1065089 30.5779093,48.2962525 30.5779093,48.5901381 C30.5779093,48.7171598 30.6240631,49.0110454 30.6240631,49.0978304 C30.6240631,49.7617357 30.5621302,50.0599606 30.5621302,50.0599606 C30.5621302,50.0599606 31.7057199,49.6023669 31.7057199,48.957002" id="Fill-9" fill="#FFFFFF"></path>
            <path d="M33.3029586,49.2907298 C33.3029586,49.0011834 33.1001972,48.6682446 32.7072978,48.6682446 C32.4193294,48.6682446 32.3076923,48.8710059 32.2773176,49.086785 C32.2615385,49.2003945 32.2579882,49.3629191 32.2579882,49.4299803 C32.2579882,49.964497 31.9491124,50.2639053 31.9491124,50.2639053 C31.9491124,50.2639053 33.3029586,49.9404339 33.3029586,49.2907298" id="Fill-10" fill="#FFFFFF"></path>
            <polygon id="Fill-11" fill="#FFFFFF" points="15.2504931 10.922288 41.5526627 10.922288 41.5526627 7.97593688 15.2504931 7.97593688"></polygon>
            <polygon id="Fill-12" fill="#FFFFFF" points="15.2504931 58.2804734 41.5526627 58.2804734 41.5526627 55.3345168 15.2504931 55.3345168"></polygon>
            <path d="M37.1637081,52.7881657 C38.3230769,53.7001972 40.3790927,54.025641 41.6315582,54.1526627 C41.381854,53.5163708 40.1775148,51.3412229 39.0185404,50.4299803 C38.418146,49.9577909 37.6410256,49.4804734 36.7751479,49.4804734 C36.3171598,49.4804734 35.9262327,49.5483235 35.7656805,49.8023669 C35.6891519,49.9230769 35.6493097,50.0962525 35.6493097,50.2938856 C35.6493097,51.4153846 36.4422091,52.2213018 37.1637081,52.7881657" id="Fill-13" fill="#FFFFFF"></path>
            <path d="M44.6796844,51.7534517 C45.2031558,51.7534517 45.7057199,51.7207101 46.1483235,51.6721893 C45.0473373,50.0485207 43.513215,47.9865878 41.2812623,47.9865878 C40.6725838,47.9865878 40.2627219,48.1960552 40.0130178,48.3538462 C39.8682446,48.4453649 39.7984221,48.6071006 39.7984221,48.7775148 C39.7984221,50.0422091 41.4019724,51.7534517 44.6796844,51.7534517" id="Fill-14" fill="#FFFFFF"></path>
            <path d="M46.3708087,48.3593688 C47.4295858,48.3593688 48.5163708,48.0548323 49.347929,47.7601578 C48.5451677,47.0260355 46.8335306,45.3637081 44.8177515,45.3637081 C44.4252465,45.3637081 44.0284024,45.4268245 43.660355,45.600789 C43.4386588,45.7053254 42.9072978,45.9861933 42.9072978,46.3668639 C42.9072978,46.7029586 43.2422091,47.1116371 43.3767258,47.2627219 C43.8883629,47.8370809 44.9506903,48.3593688 46.3708087,48.3593688" id="Fill-15" fill="#FFFFFF"></path>
            <path d="M47.8938856,44.5195266 C49.2193294,44.5195266 50.5506903,43.8792899 51.522288,43.2994083 C51.0051282,42.9621302 49.2426036,41.8216963 47.6706114,41.8216963 C47.0370809,41.8216963 46.3282051,41.9282051 45.7715976,42.3416174 C45.582643,42.4824458 45.1984221,42.8374753 45.1984221,43.0946746 C45.1984221,43.3163708 45.3439842,43.4635108 45.3956607,43.5325444 C46.0074951,44.3530572 47.0714004,44.5195266 47.8938856,44.5195266" id="Fill-16" fill="#FFFFFF"></path>
            <path d="M21.164497,50.2938856 C21.164497,50.0962525 21.1246548,49.9230769 21.0481262,49.8023669 C20.8871795,49.5483235 20.4970414,49.4800789 20.0382643,49.4800789 C19.1731755,49.4800789 18.3952663,49.9577909 17.7948718,50.4299803 C16.6358974,51.3412229 15.4213018,53.5163708 15.1715976,54.1526627 C16.4236686,54.025641 18.4911243,53.6998028 19.6504931,52.7881657 C20.3712032,52.2209073 21.164497,51.4149901 21.164497,50.2938856" id="Fill-17" fill="#FFFFFF"></path>
            <path d="M17.0153846,48.7775148 C17.0153846,48.6071006 16.9451677,48.4453649 16.800789,48.3538462 C16.5506903,48.1960552 16.1408284,47.9865878 15.5321499,47.9865878 C13.3005917,47.9865878 11.766075,50.0485207 10.6654832,51.6721893 C11.1080868,51.7207101 11.6106509,51.7534517 12.1341223,51.7534517 C15.4118343,51.7534517 17.0153846,50.0422091 17.0153846,48.7775148" id="Fill-18" fill="#FFFFFF"></path>
            <path d="M13.4370809,47.2627219 C13.5715976,47.1116371 13.9061144,46.7029586 13.9061144,46.3668639 C13.9061144,45.9861933 13.3751479,45.7053254 13.1530572,45.600789 C12.7854043,45.4268245 12.3881657,45.3637081 11.9960552,45.3637081 C9.97988166,45.3637081 8.26824458,47.0260355 7.46548323,47.7601578 C8.29704142,48.0548323 9.38422091,48.3593688 10.4426036,48.3593688 C11.8627219,48.3593688 12.9254438,47.8370809 13.4370809,47.2627219" id="Fill-19" fill="#FFFFFF"></path>
            <path d="M11.418146,43.5325444 C11.4698225,43.4635108 11.6153846,43.3163708 11.6153846,43.0946746 C11.6153846,42.8374753 11.2311637,42.4824458 11.0422091,42.3420118 C10.4856016,41.9282051 9.77672584,41.8216963 9.14319527,41.8216963 C7.57080868,41.8216963 5.8086785,42.9621302 5.29151874,43.2994083 C6.26311637,43.8792899 7.59447732,44.5195266 8.9199211,44.5195266 C9.74240631,44.5195266 10.8063116,44.3530572 11.418146,43.5325444" id="Fill-20" fill="#FFFFFF"></path>
            <path d="M34.530572,53.6497041 C34.982643,53.6497041 35.3463511,53.4891519 35.6729783,53.4323471 L33.8461538,50.5830375 C33.2055227,51.164497 32.1116371,51.3447732 31.4895464,51.3447732 C31.4895464,51.3447732 31.7171598,51.8106509 31.9944773,52.3731755 C32.4512821,53.2986193 33.5191321,53.6497041 34.530572,53.6497041" id="Fill-21" fill="#FFFFFF"></path>
            <path d="M24.8189349,52.3731755 C25.0966469,51.8106509 25.3234714,51.3447732 25.3234714,51.3447732 C24.7021696,51.3447732 23.6078895,51.1641026 22.9676529,50.5830375 L21.1404339,53.4323471 C21.4670611,53.4891519 21.8303748,53.6497041 22.2824458,53.6497041 C23.2938856,53.6497041 24.3621302,53.2986193 24.8189349,52.3731755" id="Fill-22" fill="#FFFFFF"></path>
            <path d="M17.8197239,24.3972387 C18.5739645,25.6942801 20.3928994,28.8224852 21.4532544,30.6457594 C22.433925,32.3321499 23.2011834,35.0465483 23.3013807,36.0560158 C23.495069,35.6907298 23.7108481,34.7617357 23.6982249,33.5794872 C23.6859961,32.3621302 23.443787,30.3246548 22.1431953,27.4374753 C21.7514793,26.5676529 20.9392505,24.7380671 19.399211,21.270217 C18.25286,18.6895464 17.8583826,17.1128205 17.8449704,15.8639053 C16.7877712,16.3641026 16.0532544,17.6134122 16.0678501,18.9802761 C16.0859961,20.7246548 16.4650888,22.0678501 17.8197239,24.3972387" id="Fill-23" fill="#FFFFFF"></path>
            <path d="M19.0698225,33.5731755 C18.174359,33.5783037 17.8260355,33.7968442 17.5664694,33.9278107 C17.7053254,34.5589744 18.3309665,35.2260355 18.9088757,35.5869822 C18.4323471,35.6232742 17.8441815,35.8118343 17.4749507,36.1447732 C17.7143984,36.9822485 18.3723866,37.6599606 19.2291913,38.0386588 C18.8706114,38.3179487 18.6307692,38.6366864 18.4915187,39.1550296 C19.0895464,39.85286 20.3258383,40.0721893 21.2228797,40.2315582 C20.9140039,40.5203156 20.6859961,40.9573964 20.5447732,41.4674556 C21.164497,41.9353057 22.2295858,41.964497 23.1065089,41.964497 C22.8974359,40.947929 22.6966469,39.5751479 22.6966469,38.781854 C22.6966469,36.4998028 21.9171598,34.7550296 21.4343195,33.7948718 C21.0031558,32.9096647 20.5258383,31.9956607 19.3759369,31.6287968 C18.9901381,32.2268245 18.9964497,33.0879684 19.0698225,33.5731755" id="Fill-24" fill="#FFFFFF"></path>
            <path d="M20.5072978,48.261144 C21.5207101,48.261144 22.2729783,48.0055227 23.1301775,46.7435897 C23.2284024,46.5988166 24.1112426,45.3151874 24.1112426,45.3151874 C24.1112426,45.3151874 23.4642998,43.869428 23.3499014,43.1846154 C23.3499014,43.1846154 21.4497041,44.7140039 20.4840237,45.4899408 C19.895069,45.964497 18.669428,46.8978304 17.9072978,47.0871795 C18.208284,47.4796844 19.4769231,48.261144 20.5072978,48.261144" id="Fill-25" fill="#FFFFFF"></path>
            <path d="M17.1061144,45.4856016 C18.5262327,45.4856016 19.0358974,45.0465483 19.738856,44.4812623 C20.3589744,43.981854 21.6362919,42.9546351 21.6362919,42.9546351 C20.9842209,42.9948718 20.0039448,42.6441815 19.608284,42.2260355 C19.608284,42.2260355 18.0706114,42.9680473 17.0011834,43.2954635 C15.3723866,43.7944773 14.677712,43.887574 14.3076923,43.9534517 C14.6717949,44.8852071 15.8607495,45.4856016 17.1061144,45.4856016" id="Fill-26" fill="#FFFFFF"></path>
            <path d="M14.9873767,42.329783 C16.0674556,42.2927022 18.242998,41.6737673 19.3431953,40.9771203 C18.6717949,40.9088757 17.834714,40.5723866 17.4110454,40.0205128 C16.6244576,40.1404339 15.8757396,40.2291913 15.234714,40.2303748 C13.356213,40.2213018 12.1183432,39.8106509 11.7285996,39.7526627 C12.113215,41.4465483 13.2934911,42.3877712 14.9873767,42.329783" id="Fill-27" fill="#FFFFFF"></path>
            <path d="M9.99723866,34.6666667 C9.99723866,36.9731755 11.3988166,38.9289941 15.2619329,38.9483235 C16.0954635,38.9526627 17.2927022,38.8895464 17.2927022,38.8895464 C17.339645,38.6863905 17.5597633,38.2027613 17.704142,38.0209073 C17.1656805,37.8824458 14.4102564,36.9664694 12.878501,36.2291913 C11.2110454,35.4260355 10.3218935,34.6 10.0118343,34.365286 C10.0039448,34.4311637 9.99723866,34.539645 9.99723866,34.6666667" id="Fill-28" fill="#FFFFFF"></path>
            <path d="M13.3301775,32.2169625 C11.2236686,30.6560158 10.2690335,29.5869822 9.87573964,28.8788955 C9.77672584,29.0504931 9.63392505,29.4398422 9.63392505,30.1317554 C9.63392505,31.9195266 10.3325444,33.3692308 13.6978304,35.1025641 C14.6015779,35.5680473 16.416568,36.3897436 16.416568,36.3897436 C16.3558185,36.2433925 16.3428008,35.9798817 16.3763314,35.8524655 C16.3763314,35.8524655 16.6646943,35.5072978 17.2560158,35.2607495 C17.2560158,35.2607495 14.1802761,32.8473373 13.3301775,32.2169625" id="Fill-29" fill="#FFFFFF"></path>
            <path d="M13.3672584,26.7581854 C11.825641,24.842998 11.0142012,23.7045365 10.6990138,22.8027613 C10.3739645,23.1932939 10.1727811,24.0142012 10.1727811,24.9416174 C10.1727811,27.6291913 11.6272189,29.2899408 13.538856,30.8114398 C15.078501,32.0362919 16.4859961,33.2161736 16.4859961,33.2161736 C16.4658777,33.2852071 17.1763314,32.6461538 18.2110454,32.6938856 C18.2110454,32.6938856 14.5120316,28.1806706 13.3672584,26.7581854" id="Fill-30" fill="#FFFFFF"></path>
            <path d="M13.3289941,16.1092702 C12.2426036,16.6 11.4642998,18.225641 11.4642998,19.3775148 C11.4642998,20.930572 11.8469428,22.8698225 14.1573964,25.7408284 C15.999211,28.0291913 18.4351085,31.0564103 18.4351085,31.0564103 C18.4938856,30.8398422 18.6579882,30.5029586 18.8260355,30.3502959 C19.2627219,30.338856 19.7577909,30.4919132 19.982643,30.6102564 C19.982643,30.6102564 15.8998028,23.5885602 14.8824458,21.8390533 C13.5459566,19.5408284 13.3357002,17.7554241 13.3289941,16.1092702" id="Fill-31" fill="#FFFFFF"></path>
            <path d="M40.7475345,18.9802761 C40.7621302,17.6134122 40.0272189,16.3641026 38.9704142,15.8639053 C38.9566075,17.1128205 38.5621302,18.6895464 37.416568,21.270217 C35.8761341,24.7380671 35.0635108,26.5676529 34.6721893,27.4374753 C33.3712032,30.3246548 33.129783,32.3621302 33.1167653,33.5794872 C33.104142,34.7617357 33.3199211,35.6907298 33.5140039,36.0560158 C33.6142012,35.0465483 34.3814596,32.3321499 35.3625247,30.6457594 C36.4228797,28.8224852 38.2414201,25.6942801 38.9960552,24.3972387 C40.3506903,22.0678501 40.7289941,20.7246548 40.7475345,18.9802761" id="Fill-32" fill="#FFFFFF"></path>
            <path d="M42.5076923,43.9534517 C42.1372781,43.887574 41.442998,43.7944773 39.8138067,43.2954635 C38.7447732,42.9680473 37.2067061,42.2260355 37.2067061,42.2260355 C36.8114398,42.6441815 35.8315582,42.9944773 35.1786982,42.9546351 C35.1786982,42.9546351 36.4564103,43.981854 37.0761341,44.4812623 C37.7798817,45.0465483 38.2895464,45.4856016 39.7092702,45.4856016 C40.9542406,45.4856016 42.1435897,44.8848126 42.5076923,43.9534517" id="Fill-33" fill="#FFFFFF"></path>
            <path d="M45.086785,39.7526627 C44.6974359,39.8102564 43.4595661,40.2209073 41.5810651,40.2303748 C40.9400394,40.2291913 40.1913215,40.1404339 39.4047337,40.0201183 C38.9806706,40.5723866 38.1435897,40.9088757 37.4721893,40.9771203 C38.5723866,41.6737673 40.747929,42.2923077 41.8284024,42.329783 C43.522288,42.3877712 44.7021696,41.4465483 45.086785,39.7526627" id="Fill-34" fill="#FFFFFF"></path>
            <path d="M39.5597633,35.2607495 C40.1510848,35.5072978 40.4394477,35.8524655 40.4394477,35.8524655 C40.4729783,35.9798817 40.4595661,36.2433925 40.399211,36.3897436 C40.399211,36.3897436 42.2145957,35.5680473 43.1179487,35.1029586 C46.4824458,33.3696252 47.1814596,31.9191321 47.1814596,30.1321499 C47.1814596,29.4398422 47.0390533,29.0504931 46.9400394,28.878501 C46.5467456,29.5873767 45.5921105,30.6564103 43.4856016,32.2169625 C42.634714,32.8473373 39.5597633,35.2607495 39.5597633,35.2607495" id="Fill-35" fill="#FFFFFF"></path>
            <path d="M41.9333333,21.8390533 C40.9159763,23.5885602 36.8331361,30.6098619 36.8331361,30.6098619 C37.0575937,30.4919132 37.5526627,30.3384615 37.9897436,30.3499014 C38.1573964,30.5029586 38.321499,30.8394477 38.3802761,31.0560158 C38.3802761,31.0560158 40.816568,28.0287968 42.6579882,25.7404339 C44.9684418,22.8698225 45.3510848,20.930572 45.3510848,19.3775148 C45.3510848,18.225641 44.5731755,16.6 43.4863905,16.1092702 C43.4796844,17.7554241 43.2698225,19.5408284 41.9333333,21.8390533" id="Fill-36" fill="#FFFFFF"></path>
            <path d="M20.9195266,15.3948718 L20.9195266,21.7203156 L22.8591716,26.1424063 L22.8591716,17.6840237 C22.8591716,17.2923077 23.1096647,17.0911243 23.4023669,17.0911243 L23.5017751,17.0911243 C23.7944773,17.0911243 24.0445759,17.2966469 24.0445759,17.6840237 L24.0445759,25.1045365 C24.1814596,24.9581854 24.722288,24.4039448 25.5467456,24.4039448 C25.852071,24.4039448 26.0859961,24.4891519 26.1550296,24.5183432 L26.1554241,17.6840237 C26.1554241,17.2923077 26.4055227,17.0911243 26.6982249,17.0911243 L26.7976331,17.0911243 C27.0903353,17.0911243 27.3404339,17.2966469 27.3404339,17.6840237 L27.3404339,17.7783037 L27.3400394,25.1790927 C27.3854043,25.2043393 27.4489152,25.25286 27.5088757,25.3001972 C27.6086785,25.3798817 27.6627219,25.4244576 27.8149901,25.4244576 C27.8962525,25.4244576 28.061144,25.3806706 28.329783,25.3806706 C28.9069034,25.3806706 29.260355,25.5727811 29.4749507,25.6895464 L29.4749507,17.6840237 C29.4749507,17.2923077 29.7254438,17.0911243 30.018146,17.0911243 L30.1175542,17.0911243 C30.4098619,17.0911243 30.660355,17.2966469 30.660355,17.6840237 L30.660355,26.8481262 L32.0315582,29.8824458 C32.0315582,29.8824458 31.7349112,29.9167653 31.556213,29.9712032 C31.3767258,30.0260355 31.3025641,30.1258383 31.3025641,30.1873767 C31.3025641,30.2954635 31.3676529,30.4686391 31.3968442,30.556213 C31.425641,30.643787 31.8027613,31.5605523 32.0792899,32.1116371 C32.1301775,30.869428 32.3581854,29.9775148 32.7704142,28.8362919 L32.7708087,17.7451677 L32.7708087,17.6840237 C32.7708087,17.2923077 33.0209073,17.0911243 33.3136095,17.0911243 L33.4130178,17.0911243 C33.7057199,17.0911243 33.956213,17.2966469 33.956213,17.6840237 L33.956213,17.7783037 C33.956213,17.7798817 33.9554241,17.7814596 33.9554241,17.7830375 L33.9554241,26.0189349 L35.8970414,21.5798817 L35.8978304,15.3948718 L20.9195266,15.3948718" id="Fill-37" fill="#FFFFFF"></path>
            <path d="M38.9088757,47.0871795 C38.1459566,46.8978304 36.9203156,45.964497 36.3313609,45.4899408 C35.366075,44.7140039 33.4658777,43.1846154 33.4658777,43.1846154 C33.295858,43.8796844 32.704142,45.3151874 32.704142,45.3151874 C32.704142,45.3151874 33.5873767,46.5988166 33.6856016,46.7435897 C34.5428008,48.0055227 35.295069,48.261144 36.3084813,48.261144 C37.3392505,48.261144 38.6074951,47.4796844 38.9088757,47.0871795" id="Fill-38" fill="#FFFFFF"></path>
            <path d="M46.8122288,34.365286 C46.5017751,34.6 45.6130178,35.425641 43.9451677,36.2291913 C42.4138067,36.9664694 39.6583826,37.8824458 39.1199211,38.0209073 C39.2639053,38.2027613 39.4840237,38.6863905 39.5313609,38.8895464 C39.5313609,38.8895464 40.7285996,38.9526627 41.5617357,38.9483235 C45.4248521,38.9289941 46.8268245,36.9731755 46.8268245,34.6666667 C46.8268245,34.5392505 46.8201183,34.4311637 46.8122288,34.365286" id="Fill-39" fill="#FFFFFF"></path>
            <path d="M38.6043393,32.6938856 C39.6386588,32.6461538 40.3491124,33.2852071 40.3289941,33.2161736 C40.3289941,33.2161736 41.7368836,32.0362919 43.2765286,30.8114398 C45.1881657,29.2899408 46.6422091,27.6291913 46.6422091,24.9416174 C46.6422091,24.0145957 46.4414201,23.1932939 46.1163708,22.8023669 C45.8011834,23.7045365 44.9897436,24.842998 43.4481262,26.7581854 C42.3029586,28.1810651 38.6043393,32.6938856 38.6043393,32.6938856" id="Fill-40" fill="#FFFFFF"></path>
            <path d="M37.4402367,31.6291913 C36.2899408,31.9960552 35.8126233,32.9100592 35.3814596,33.7952663 C34.8990138,34.7550296 34.1191321,36.4998028 34.1191321,38.781854 C34.1191321,39.5751479 33.9183432,40.947929 33.7092702,41.9641026 C34.5865878,41.9641026 35.6512821,41.9353057 36.2710059,41.4674556 C36.129783,40.9573964 35.9021696,40.5203156 35.5932939,40.2315582 C36.4899408,40.0721893 37.7262327,39.85286 38.3238659,39.1550296 C38.1850099,38.6366864 37.9451677,38.3179487 37.5869822,38.0386588 C38.443787,37.6599606 39.1017751,36.9822485 39.3408284,36.1447732 C38.9712032,35.8122288 38.3838264,35.6232742 37.9072978,35.5869822 C38.4852071,35.22643 39.1104536,34.5593688 39.2493097,33.9282051 C38.9897436,33.7972387 38.6418146,33.5779093 37.7463511,33.57357 C37.8193294,33.0883629 37.825641,32.2272189 37.4402367,31.6291913" id="Fill-41" fill="#FFFFFF"></path>
            <path d="M28.017357,49.9211045 C28.017357,49.9211045 27.9262327,49.478501 27.9262327,49.0023669 C27.9262327,48.6477318 28.0189349,48.470217 28.0189349,48.261144 C28.0189349,47.9913215 27.8824458,47.7704142 27.5380671,47.7704142 C27.0398422,47.7704142 26.8055227,48.1783037 26.8055227,48.6544379 C26.8055227,49.3767258 28.017357,49.9211045 28.017357,49.9211045" id="Fill-42" fill="#FFFFFF"></path>
            <path d="M26.2500986,50.0599606 C26.2500986,50.0599606 26.1881657,49.7617357 26.1881657,49.0978304 C26.1881657,49.0110454 26.2343195,48.7171598 26.2343195,48.5901381 C26.2343195,48.2962525 26.0832347,48.1065089 25.7854043,48.1065089 C25.3163708,48.1065089 25.1065089,48.5053254 25.1065089,48.957002 C25.1065089,49.6023669 26.2500986,50.0599606 26.2500986,50.0599606" id="Fill-43" fill="#FFFFFF"></path>
            <path d="M24.8631164,50.2639053 C24.8631164,50.2639053 24.5542406,49.964497 24.5542406,49.4299803 C24.5542406,49.3629191 24.5510848,49.2003945 24.5349112,49.0863905 C24.5045365,48.8710059 24.3932939,48.6682446 24.104931,48.6682446 C23.7120316,48.6682446 23.5092702,49.0011834 23.5092702,49.2907298 C23.5092702,49.9404339 24.8631164,50.2639053 24.8631164,50.2639053" id="Fill-44" fill="#FFFFFF"></path>
            <path d="M79.9861933,13.4311637 L77.2169625,22.3865878 L82.7550296,22.3865878 L79.9861933,13.4311637 Z M83.22643,23.8891519 L76.7455621,23.8891519 L75.3021696,28.6023669 L70.3530572,28.6023669 L77.4524655,7.98145957 L82.8142012,7.98145957 L89.9136095,28.6023669 L84.6698225,28.6023669 L83.22643,23.8891519 L83.22643,23.8891519 Z" id="Fill-45" fill="#6F8F9D"></path>
            <polyline id="Fill-46" fill="#6F8F9D" points="91.1502959 28.6023669 91.1502959 27.3944773 94.0078895 27.3944773 94.0078895 9.18934911 91.1502959 9.18934911 91.1502959 7.98145957 101.931755 7.98145957 101.931755 9.18934911 99.104142 9.18934911 99.104142 27.3944773 101.931755 27.3944773 101.931755 28.6023669 91.1502959 28.6023669"></polyline>
            <path d="M112.801578,13.4311637 L110.032742,22.3865878 L115.570809,22.3865878 L112.801578,13.4311637 Z M116.041815,23.8891519 L109.560947,23.8891519 L108.117554,28.6023669 L103.168836,28.6023669 L110.268245,7.98145957 L115.629586,7.98145957 L122.728994,28.6023669 L117.485207,28.6023669 L116.041815,23.8891519 L116.041815,23.8891519 Z" id="Fill-47" fill="#6F8F9D"></path>
            <polyline id="Fill-48" fill="#6F8F9D" points="75.7143984 40.8370809 74.8307692 39.4228797 74.860355 41.190927 74.9487179 58.1881657 72.886785 58.1881657 72.886785 37.5672584 75.77357 37.5672584 86.3491124 53.3278107 87.4682446 55.1242604 87.4094675 53.0031558 87.3211045 37.5672584 89.3830375 37.5672584 89.3830375 58.1881657 87.3211045 58.1881657 75.7143984 40.8370809"></polyline>
            <path d="M94.6556213,50.2343195 L103.021696,50.2343195 C102.84497,47.1412229 101.16568,45.3147929 99.0449704,45.3147929 C96.8059172,45.3147929 94.9502959,47.1412229 94.6556213,50.2343195 Z M99.3096647,58.3940828 C95.6863905,58.3940828 92.6816568,55.8607495 92.6816568,51.0887574 C92.6816568,46.3163708 95.5688363,43.7242604 99.0449704,43.7242604 C102.285207,43.7242604 104.995266,46.2871795 104.995266,50.8824458 L104.995266,51.1179487 L94.6260355,51.1179487 C94.6260355,54.6532544 96.6587771,56.8327416 99.3096647,56.8327416 C100.988955,56.8327416 102.461933,55.9786982 102.99211,54.0639053 L104.81854,54.0639053 C103.964497,57.2161736 101.843393,58.3940828 99.3096647,58.3940828 L99.3096647,58.3940828 Z" id="Fill-49" fill="#6F8F9D"></path>
            <polyline id="Fill-50" fill="#6F8F9D" points="117.102564 43.9597633 120.166075 54.2406312 120.549112 55.566075 120.902564 54.2406312 123.760158 43.9597633 125.792899 43.9597633 121.580276 58.1881657 119.57712 58.1881657 116.631164 48.5258383 116.100986 46.5814596 115.541223 48.5258383 112.624852 58.1881657 110.621696 58.1881657 106.409073 43.9597633 108.441815 43.9597633 111.299408 54.2406312 111.65286 55.5368836 112.035897 54.2406312 115.099408 43.9597633 117.102564 43.9597633"></polyline>
            <polyline id="Fill-51" fill="#6F8F9D" points="140.314398 58.1881657 140.314398 49.2915187 133.568836 37.5672584 135.954635 37.5672584 141.493097 47.4063116 147.001578 37.5672584 149.299408 37.5672584 142.553452 49.2915187 142.553452 58.1881657 140.314398 58.1881657"></polyline>
            <path d="M149.976331,51.0887574 C149.976331,54.6532544 152.127022,56.8623274 154.778304,56.8623274 C157.429586,56.8623274 159.579882,54.6532544 159.579882,51.0887574 C159.579882,47.5242604 157.429586,45.3147929 154.778304,45.3147929 C152.127022,45.3147929 149.976331,47.5242604 149.976331,51.0887574 Z M148.003156,51.0887574 C148.003156,46.2871795 151.15503,43.7534517 154.778304,43.7534517 C158.431164,43.7534517 161.583037,46.2871795 161.583037,51.0887574 C161.583037,55.8903353 158.431164,58.4240631 154.778304,58.4240631 C151.15503,58.4240631 148.003156,55.8903353 148.003156,51.0887574 L148.003156,51.0887574 Z" id="Fill-52" fill="#6F8F9D"></path>
            <path d="M164.439448,58.1881657 L164.439448,43.9597633 L166.118738,43.9597633 L166.207101,47.5538462 C167.650493,44.9025641 169.624458,43.6650888 171.803945,43.7534517 L171.803945,45.5506903 C169.712821,45.4035503 167.680079,46.7877712 166.413412,49.6453649 L166.413412,58.1881657 L164.439448,58.1881657" id="Fill-53" fill="#6F8F9D"></path>
            <polyline id="Fill-54" fill="#6F8F9D" points="177.607101 51.4422091 175.928205 51.4422091 175.928205 58.1881657 173.954635 58.1881657 173.954635 37.5672584 175.928205 37.5672584 175.928205 50.5585799 177.283235 50.5585799 182.585799 43.9597633 184.795266 43.9597633 179.315976 50.6761341 185.207495 58.1881657 182.93925 58.1881657 177.607101 51.4422091"></polyline>
        </g>
    </g>
</svg>