<?xml version="1.0" encoding="UTF-8" standalone="no"?>
<svg width="231px" height="79px" viewBox="0 0 231 79" version="1.1" xmlns="http://www.w3.org/2000/svg" xmlns:xlink="http://www.w3.org/1999/xlink">
    <!-- Generator: Sketch 39.1 (31720) - http://www.bohemiancoding.com/sketch -->
    <title>Page 1</title>
    <desc>Created with Sketch.</desc>
    <defs></defs>
    <g id="Page-1" stroke="none" stroke-width="1" fill="none" fill-rule="evenodd">
        <path d="M4.7610687,1.67519084 L4.7610687,36.6778626 L0,36.6778626 L0,37.559542 L14.8122137,37.559542 L14.8122137,36.6778626 L10.051145,36.6778626 L10.051145,1.67519084 L14.8122137,1.67519084 L14.8122137,0.79351145 L0,0.79351145 L0,1.67519084 L4.7610687,1.67519084 Z M20.8958015,3.35038168 L45.8473282,37.8240458 L46.5526718,37.8240458 L46.5526718,4.49656489 C46.5526718,2.38053435 46.9935115,1.67519084 49.1977099,1.67519084 L51.5782443,1.67519084 L51.5782443,0.79351145 L40.5572519,0.79351145 L40.5572519,1.67519084 L42.9377863,1.67519084 C45.3183206,1.67519084 45.6709924,2.38053435 45.6709924,4.49656489 L45.6709924,28.0374046 L45.5828244,28.0374046 L25.8332061,0.79351145 L14.9003817,0.79351145 L14.9003817,1.67519084 L19.9259542,1.67519084 L19.9259542,33.7683206 C19.9259542,36.2370229 19.1324427,36.6778626 16.6637405,36.6778626 L14.9003817,36.6778626 L14.9003817,37.559542 L26.0977099,37.559542 L26.0977099,36.6778626 L23.9816794,36.6778626 C21.601145,36.6778626 20.7194656,36.2370229 20.7194656,33.7683206 L20.7194656,3.35038168 L20.8958015,3.35038168 Z M65.0679389,1.67519084 L65.0679389,36.6778626 L59.6896947,36.6778626 L59.6896947,37.559542 L75.8244275,37.559542 L75.8244275,36.6778626 L70.4461832,36.6778626 L70.4461832,1.67519084 L71.5923664,1.67519084 C80.7618321,1.67519084 82.8778626,3.08587786 82.8778626,11.6381679 L83.759542,11.6381679 L83.759542,0.79351145 L51.7545802,0.79351145 L51.7545802,11.6381679 L52.6362595,11.6381679 C52.6362595,3.08587786 54.7522901,1.67519084 64.0099237,1.67519084 L65.0679389,1.67519084 Z M88.9614504,1.67519084 L88.9614504,36.6778626 L84.3767176,36.6778626 L84.3767176,37.559542 L114.794656,37.559542 L114.794656,26.8912214 L113.912977,26.8912214 C113.912977,35.7080153 109.857252,36.6778626 101.39313,36.6778626 L94.2515267,36.6778626 L94.2515267,19.3087786 L98.130916,19.3087786 C103.50916,19.3087786 104.126336,21.689313 104.126336,25.6568702 L104.919847,25.6568702 L104.919847,11.8145038 L104.126336,11.8145038 C104.126336,15.0767176 103.685496,18.4270992 98.130916,18.4270992 L94.2515267,18.4270992 L94.2515267,1.67519084 L102.451145,1.67519084 C108.005725,1.67519084 111.973282,3.70305344 111.973282,9.69847328 L112.766794,9.69847328 L112.149618,0.79351145 L84.3767176,0.79351145 L84.3767176,1.67519084 L88.9614504,1.67519084 Z M121.848092,1.67519084 L121.848092,36.6778626 L116.558015,36.6778626 L116.558015,37.559542 L132.428244,37.559542 L132.428244,36.6778626 L127.138168,36.6778626 L127.138168,19.0442748 L130.48855,19.0442748 C136.483969,19.0442748 137.365649,22.0419847 137.718321,25.3041985 L138.070992,28.4782443 C138.776336,34.4736641 139.217176,37.8240458 145.565267,37.8240458 C147.416794,37.8240458 148.739313,37.559542 149.797328,37.2068702 L149.532824,36.5015267 C148.915649,36.7660305 148.298473,37.0305344 147.328626,37.0305344 C146.887786,37.0305344 146.446947,36.8541985 145.829771,36.5015267 C145.212595,36.2370229 144.859924,35.2671756 144.683588,33.7683206 L143.890076,27.3320611 C143.184733,20.5431298 139.922519,19.1324427 133.927099,18.6916031 L133.927099,18.5152672 C137.806489,18.0744275 145.124427,16.3992366 145.124427,10.051145 C145.124427,2.20419847 138.6,0.79351145 132.60458,0.79351145 L116.558015,0.79351145 L116.558015,1.67519084 L121.848092,1.67519084 Z M127.138168,18.2507634 L127.138168,1.67519084 L130.664885,1.67519084 C138.070992,1.67519084 139.481679,5.90725191 139.481679,10.051145 C139.481679,16.1347328 135.866794,18.2507634 129.783206,18.2507634 L127.138168,18.2507634 Z M154.382061,1.67519084 L154.382061,36.6778626 L149.70916,36.6778626 L149.70916,37.559542 L164.521374,37.559542 L164.521374,36.6778626 L159.760305,36.6778626 L159.760305,1.67519084 L164.521374,1.67519084 L164.521374,0.79351145 L149.70916,0.79351145 L149.70916,1.67519084 L154.382061,1.67519084 Z M181.978626,0 C177.658397,0 173.514504,2.11603053 170.428626,5.55458015 C167.342748,9.08129771 165.491221,13.8423664 165.491221,19.2206107 C165.491221,24.510687 167.342748,29.2717557 170.428626,32.7103053 C173.514504,36.2370229 177.658397,38.3530534 181.978626,38.3530534 C186.475191,38.3530534 190.442748,36.2370229 193.528626,32.7103053 C196.614504,29.2717557 198.466031,24.510687 198.466031,19.2206107 C198.466031,13.8423664 196.614504,9.08129771 193.528626,5.55458015 C190.442748,2.11603053 186.475191,0 181.978626,0 L181.978626,0 Z M181.978626,37.559542 C172.720992,37.559542 171.486641,26.009542 171.486641,19.2206107 C171.486641,12.2553435 172.720992,0.79351145 181.978626,0.79351145 C191.23626,0.79351145 192.558779,12.2553435 192.558779,19.2206107 C192.558779,26.009542 191.23626,37.559542 181.978626,37.559542 L181.978626,37.559542 Z M202.962595,1.67519084 L202.962595,36.6778626 L197.760687,36.6778626 L197.760687,37.559542 L213.630916,37.559542 L213.630916,36.6778626 L208.252672,36.6778626 L208.252672,19.0442748 L211.691221,19.0442748 C217.598473,19.0442748 218.480153,22.0419847 218.832824,25.3041985 L219.273664,28.4782443 C219.979008,34.4736641 220.331679,37.8240458 226.679771,37.8240458 C228.707634,37.8240458 229.941985,37.559542 231,37.2068702 L230.647328,36.5015267 C230.206489,36.7660305 229.501145,37.0305344 228.531298,37.0305344 C228.090458,37.0305344 227.56145,36.8541985 226.944275,36.5015267 C226.327099,36.2370229 225.974427,35.2671756 225.798092,33.7683206 L225.092748,27.3320611 C224.299237,20.5431298 221.125191,19.1324427 215.129771,18.6916031 L215.129771,18.5152672 C218.920992,18.0744275 226.238931,16.3992366 226.238931,10.051145 C226.238931,2.20419847 219.714504,0.79351145 213.719084,0.79351145 L197.760687,0.79351145 L197.760687,1.67519084 L202.962595,1.67519084 Z M208.252672,18.2507634 L208.252672,1.67519084 L211.867557,1.67519084 C219.273664,1.67519084 220.684351,5.90725191 220.684351,10.051145 C220.684351,16.1347328 216.981298,18.2507634 210.89771,18.2507634 L208.252672,18.2507634 Z M31.6522901,42.3206107 L31.6522901,77.3232824 L26.6267176,77.3232824 L26.6267176,78.2049618 L43.0259542,78.2049618 C53.6942748,78.2049618 60.7477099,71.1515267 60.7477099,59.7778626 C60.7477099,56.339313 59.8660305,51.6664122 57.1328244,47.9633588 C54.3114504,44.2603053 49.9912214,41.4389313 43.0259542,41.4389313 L26.6267176,41.4389313 L26.6267176,42.3206107 L31.6522901,42.3206107 Z M36.9423664,77.3232824 L36.9423664,42.3206107 L39.4992366,42.3206107 C52.2835878,42.3206107 54.840458,50.9610687 54.840458,59.7778626 C54.840458,67.6248092 53.1652672,72.5622137 49.9030534,74.4137405 C46.6408397,76.3534351 43.8194656,77.3232824 41.4389313,77.3232824 L36.9423664,77.3232824 Z M64.8916031,42.3206107 L64.8916031,77.3232824 L60.3068702,77.3232824 L60.3068702,78.2049618 L90.7248092,78.2049618 L90.7248092,67.4484733 L89.9312977,67.4484733 C89.9312977,76.3534351 85.7874046,77.3232824 77.4114504,77.3232824 L70.1816794,77.3232824 L70.1816794,59.9541985 L74.0610687,59.9541985 C79.6156489,59.9541985 80.0564885,62.3347328 80.0564885,66.3022901 L80.9381679,66.3022901 L80.9381679,52.3717557 L80.0564885,52.3717557 C80.0564885,55.8103053 79.5274809,59.0725191 74.1492366,59.0725191 L70.1816794,59.0725191 L70.1816794,42.3206107 L78.3812977,42.3206107 C83.9358779,42.3206107 87.9034351,44.3484733 87.9034351,50.3438931 L88.7851145,50.3438931 L88.079771,41.4389313 L60.3068702,41.4389313 L60.3068702,42.3206107 L64.8916031,42.3206107 Z M94.1633588,65.3324427 L94.1633588,78.4694656 L94.9568702,78.4694656 C94.9568702,77.6759542 95.1332061,76.2652672 96.2793893,76.2652672 C97.2492366,76.2652672 98.5717557,76.7061069 100.070611,77.5877863 C101.569466,78.5576336 103.597328,78.9984733 106.242366,78.9984733 C113.736641,78.9984733 117.527863,73.8847328 117.527863,67.0958015 C117.527863,60.3068702 114.441985,57.8381679 106.771374,56.5156489 C98.219084,54.840458 96.3675573,53.8706107 96.3675573,49.1977099 C96.3675573,44.3484733 99.4534351,41.4389313 103.95,41.4389313 C110.915267,41.4389313 114.177481,46.8171756 114.618321,52.8125954 L115.411832,52.8125954 L115.411832,41.7916031 L114.618321,41.7916031 C114.530153,42.4969466 114.265649,43.8194656 113.119466,43.8194656 C112.237786,43.8194656 111.179771,43.290458 109.857252,42.2324427 C108.534733,41.1744275 106.595038,40.6454198 103.95,40.6454198 C98.0427481,40.6454198 94.1633588,44.9656489 94.1633588,50.8729008 C94.1633588,59.6896947 98.0427481,61.0122137 106.242366,62.3347328 C112.237786,63.3045802 115.05916,64.8916031 115.05916,70.2698473 C115.05916,74.9427481 111.444275,78.2049618 106.418702,78.2049618 C100.158779,78.2049618 94.9568702,74.0610687 94.9568702,65.3324427 L94.1633588,65.3324427 Z M122.906107,42.3206107 L122.906107,77.3232824 L118.145038,77.3232824 L118.145038,78.2049618 L132.957252,78.2049618 L132.957252,77.3232824 L128.196183,77.3232824 L128.196183,42.3206107 L132.957252,42.3206107 L132.957252,41.4389313 L118.145038,41.4389313 L118.145038,42.3206107 L122.906107,42.3206107 Z M158.614122,64.3625954 L158.614122,71.7687023 C158.614122,76.6179389 155.175573,78.2049618 150.238168,78.2049618 C140.980534,78.2049618 139.658015,66.5667939 139.658015,59.7778626 C139.658015,52.9889313 140.980534,41.4389313 150.238168,41.4389313 C156.674427,41.4389313 161.788168,47.0816794 162.052672,52.7244275 L162.846183,52.7244275 L162.846183,41.5270992 L162.052672,41.5270992 C162.052672,42.8496183 161.7,44.1721374 160.201145,44.1721374 C159.407634,44.1721374 158.26145,43.5549618 156.762595,42.4087786 C155.26374,41.2625954 153.059542,40.6454198 150.238168,40.6454198 C145.741603,40.6454198 141.685878,42.7614504 138.688168,46.2 C135.690458,49.6385496 133.750763,54.4877863 133.750763,59.7778626 C133.750763,72.121374 140.804198,78.9984733 150.238168,78.9984733 C158.085115,78.9984733 162.493511,74.8545802 164.25687,73.4438931 L164.25687,64.3625954 L168.312595,64.3625954 L168.312595,63.569084 L153.764885,63.569084 L153.764885,64.3625954 L158.614122,64.3625954 Z M172.544656,43.9958015 L197.584351,78.4694656 L198.201527,78.4694656 L198.201527,45.1419847 C198.201527,42.9377863 198.730534,42.3206107 200.934733,42.3206107 L203.227099,42.3206107 L203.227099,41.4389313 L192.206107,41.4389313 L192.206107,42.3206107 L194.674809,42.3206107 C197.055344,42.3206107 197.408015,42.9377863 197.408015,45.1419847 L197.408015,68.6828244 L197.319847,68.6828244 L177.570229,41.4389313 L166.637405,41.4389313 L166.637405,42.3206107 L171.662977,42.3206107 L171.662977,74.3255725 C171.662977,76.8824427 170.781298,77.3232824 168.400763,77.3232824 L166.637405,77.3232824 L166.637405,78.2049618 L177.834733,78.2049618 L177.834733,77.3232824 L175.718702,77.3232824 C173.25,77.3232824 172.456489,76.8824427 172.456489,74.3255725 L172.456489,43.9958015 L172.544656,43.9958015 Z M201.199237,43.4667939 L201.199237,43.4667939 C200.493893,43.4667939 199.876718,44.0839695 199.876718,44.8774809 C199.876718,45.5828244 200.493893,46.2 201.199237,46.2 C201.90458,46.2 202.521756,45.5828244 202.521756,44.8774809 C202.521756,44.0839695 201.90458,43.4667939 201.199237,43.4667939 L201.199237,43.4667939 Z M201.199237,43.7312977 L201.199237,43.7312977 C201.816412,43.7312977 202.257252,44.1721374 202.257252,44.8774809 C202.257252,45.4946565 201.816412,46.0236641 201.199237,46.0236641 C200.582061,46.0236641 200.141221,45.4946565 200.141221,44.8774809 C200.141221,44.1721374 200.582061,43.7312977 201.199237,43.7312977 L201.199237,43.7312977 Z M200.934733,45.6709924 L200.934733,44.9656489 L201.111069,44.9656489 C201.375573,44.9656489 201.46374,44.9656489 201.46374,45.2301527 C201.46374,45.3183206 201.46374,45.4064885 201.551908,45.4946565 L201.551908,45.6709924 L201.816412,45.6709924 L201.816412,45.4946565 C201.728244,45.4064885 201.728244,45.3183206 201.728244,45.2301527 C201.640076,45.1419847 201.640076,45.0538168 201.640076,44.9656489 C201.551908,44.8774809 201.551908,44.8774809 201.46374,44.8774809 L201.46374,44.8774809 C201.551908,44.8774809 201.728244,44.789313 201.728244,44.5248092 L201.728244,44.3484733 C201.640076,44.2603053 201.640076,44.1721374 201.46374,44.0839695 L201.111069,44.0839695 L200.934733,44.0839695 L200.670229,44.0839695 L200.670229,45.6709924 L200.934733,45.6709924 Z M200.934733,44.789313 L200.934733,44.2603053 L201.111069,44.2603053 L201.111069,44.2603053 C201.375573,44.2603053 201.46374,44.4366412 201.46374,44.5248092 C201.46374,44.789313 201.375573,44.789313 201.111069,44.789313 L200.934733,44.789313 Z" fill="#000000"></path>
    </g>
</svg>