<?xml version="1.0" encoding="utf-8"?>
<!-- Generator: Adobe Illustrator 17.1.0, SVG Export Plug-In . SVG Version: 6.00 Build 0)  -->
<!DOCTYPE svg PUBLIC "-//W3C//DTD SVG 1.0//EN" "http://www.w3.org/TR/2001/REC-SVG-20010904/DTD/svg10.dtd">
<svg version="1.0" id="Layer_1" xmlns="http://www.w3.org/2000/svg" xmlns:xlink="http://www.w3.org/1999/xlink" x="0px" y="0px"
	 viewBox="0 0 137.6 76.3" enable-background="new 0 0 137.6 76.3" xml:space="preserve">
<path fill="#231F20" d="M56.5,31.7c-0.8-0.9-1.8-1.4-2.9-1.4c-0.3,0-0.7,0.1-1,0.2c-0.3,0.1-0.6,0.3-0.9,0.5
	c-0.3,0.2-0.5,0.6-0.6,0.9c-0.2,0.4-0.2,0.8-0.2,1.3c0,0.9,0.3,1.6,0.8,2.1c0.5,0.5,1.2,1,2.1,1.4c0.5,0.3,1,0.6,1.6,0.9
	c0.5,0.3,1,0.8,1.5,1.2c0.4,0.5,0.8,1.1,1.1,1.7c0.3,0.7,0.4,1.4,0.4,2.3c0,1-0.2,2-0.5,2.8c-0.3,0.8-0.8,1.5-1.3,2
	c-0.5,0.6-1.2,1-1.9,1.2c-0.7,0.3-1.5,0.4-2.3,0.4c-1.2,0-2.3-0.2-3.3-0.7c-1-0.5-1.8-1-2.4-1.7l1.9-2.6c0.5,0.6,1,1,1.7,1.3
	c0.6,0.3,1.3,0.5,2,0.5c0.8,0,1.4-0.3,1.9-0.8c0.5-0.5,0.7-1.2,0.7-2.2c0-0.9-0.3-1.7-0.9-2.2c-0.6-0.5-1.4-1-2.3-1.5
	c-0.6-0.3-1.1-0.6-1.6-0.9c-0.5-0.3-1-0.7-1.3-1.2c-0.4-0.5-0.7-1-0.9-1.7c-0.2-0.6-0.3-1.4-0.3-2.3c0-1.1,0.2-2,0.5-2.8
	c0.3-0.8,0.8-1.4,1.4-2s1.2-0.9,1.9-1.2c0.7-0.2,1.4-0.4,2.2-0.4c1.1,0,2,0.2,2.9,0.5c0.8,0.4,1.6,0.9,2.1,1.5L56.5,31.7z"/>
<polygon fill="#231F20" points="67.8,30.6 67.8,48.8 64.2,48.8 64.2,30.6 60.3,30.6 60.3,27.6 71.7,27.6 71.7,30.6 "/>
<polygon fill="#231F20" points="89.9,48.8 89.9,32.5 89.8,32.5 85.6,48.8 82.8,48.8 78.6,32.5 78.5,32.5 78.6,48.8 75.3,48.8 
	75.3,27.6 80.1,27.6 84.2,43.1 84.3,43.1 88.3,27.6 93.4,27.6 93.4,48.8 "/>
<polygon fill="#231F20" points="102.3,30.8 102.3,36.6 107.7,36.6 107.7,39.7 102.3,39.7 102.3,48.8 98.7,48.8 98.7,27.6 
	108.2,27.6 108.2,30.8 "/>
<path fill="#231F20" d="M131.6,70.3H6V6h125.6V70.3z M137.6,0h-6H6H0v6v64.3v6h6h125.6h6v-6V6V0z"/>
<polygon fill="#231F20" points="38.5,48.8 32.5,33.8 32.4,33.8 32.5,48.8 29.3,48.8 29.3,27.6 33.4,27.6 39.3,42.7 39.4,42.7 
	39.4,27.6 42.5,27.6 42.5,48.8 "/>
</svg>
