<?xml version="1.0" encoding="UTF-8" standalone="no"?>
<svg width="116px" height="116px" viewBox="0 0 116 116" version="1.1" xmlns="http://www.w3.org/2000/svg" xmlns:xlink="http://www.w3.org/1999/xlink">
    <!-- Generator: Sketch 39.1 (31720) - http://www.bohemiancoding.com/sketch -->
    <title>Slice 1</title>
    <desc>Created with Sketch.</desc>
    <defs></defs>
    <g id="Page-1" stroke="none" stroke-width="1" fill="none" fill-rule="evenodd">
        <g id="tumblr" fill="#000000">
            <path d="M58.04,0.166 C26.1,0.166 0.207,26.06 0.207,58 C0.207,89.939 26.1,115.834 58.04,115.834 C89.981,115.834 115.875,89.939 115.875,58 C115.875,26.06 89.981,0.166 58.04,0.166 L58.04,0.166 Z M79.143,88.717 C79.143,88.717 76.092,92.279 62.592,92.279 C50.756,92.279 45.549,84.059 45.549,78.251 L45.549,51.781 L36.398,51.781 L36.398,42.135 C50.098,39.011 51.03,23.776 51.03,23.776 L62.046,23.722 L62.046,40.93 L79.089,40.93 L79.089,53.699 L62.209,53.699 L62.209,76.113 C64.004,81.075 68.736,81.555 72.656,81.064 C76.75,80.553 79.142,78.689 79.142,78.689 L79.142,88.717 L79.143,88.717 Z" id="Shape"></path>
        </g>
    </g>
</svg>