<?xml version="1.0" encoding="UTF-8" standalone="no"?>
<svg width="50px" height="50px" viewBox="0 0 50 50" version="1.1" xmlns="http://www.w3.org/2000/svg" xmlns:xlink="http://www.w3.org/1999/xlink">
    <!-- Generator: Sketch 39.1 (31720) - http://www.bohemiancoding.com/sketch -->
    <title>twitter</title>
    <desc>Created with Sketch.</desc>
    <defs></defs>
    <g id="Page-1" stroke="none" stroke-width="1" fill="none" fill-rule="evenodd">
        <g id="twitter" fill="#000000">
            <path d="M25.348,0.157 C11.748,0.157 0.723,11.184 0.723,24.782 C0.723,38.382 11.748,49.405 25.348,49.405 C38.948,49.405 49.971,38.382 49.971,24.782 C49.971,11.184 38.947,0.157 25.348,0.157 L25.348,0.157 Z M37.752,19.817 C37.765,20.083 37.77,20.35 37.77,20.62 C37.77,28.821 31.528,38.276 20.114,38.276 C16.61,38.276 13.347,37.249 10.601,35.489 C11.087,35.546 11.58,35.575 12.081,35.575 C14.989,35.575 17.665,34.583 19.788,32.919 C17.073,32.868 14.782,31.073 13.992,28.608 C14.37,28.682 14.759,28.719 15.159,28.719 C15.725,28.719 16.273,28.645 16.794,28.502 C13.954,27.932 11.815,25.422 11.815,22.418 C11.815,22.391 11.815,22.365 11.816,22.338 C12.652,22.803 13.609,23.082 14.627,23.115 C12.961,22 11.866,20.103 11.866,17.949 C11.866,16.812 12.172,15.745 12.706,14.829 C15.767,18.583 20.34,21.054 25.498,21.312 C25.392,20.859 25.337,20.384 25.337,19.898 C25.337,16.472 28.115,13.693 31.543,13.693 C33.328,13.693 34.94,14.447 36.072,15.652 C37.486,15.375 38.814,14.857 40.013,14.146 C39.548,15.596 38.565,16.812 37.283,17.579 C38.54,17.429 39.736,17.095 40.848,16.602 C40.018,17.849 38.965,18.942 37.752,19.817 L37.752,19.817 Z" id="Shape"></path>
        </g>
    </g>
</svg>